<?xml version="1.0" encoding="UTF-8"?>
<!DOCTYPE svg PUBLIC "-//W3C//DTD SVG 1.1//EN" "http://www.w3.org/Graphics/SVG/1.1/DTD/svg11.dtd">
<!-- Creator: CorelDRAW 2019 (64-Bit) -->
<svg xmlns="http://www.w3.org/2000/svg" xml:space="preserve" width="16px" height="23px" version="1.1" style="shape-rendering:geometricPrecision; text-rendering:geometricPrecision; image-rendering:optimizeQuality; fill-rule:evenodd; clip-rule:evenodd"
viewBox="0 0 16 22.63"
 xmlns:xlink="http://www.w3.org/1999/xlink"
 xmlns:xodm="http://www.corel.com/coreldraw/odm/2003"
 aria-hidden="true"
 focusable="false"
 data-prefix="fas"
 data-icon="shopping-bag"
 role="img">
 <defs>
  <style type="text/css">
   <![CDATA[
    .fil0 {fill:#FEFEFE;fill-rule:nonzero}
   ]]>
  </style>
 </defs>
 <g id="Layer_x0020_1">
  <metadata id="CorelCorpID_0Corel-Layer"/>
  <path class="fil0" d="M12.56 5.79l0 -1.14c0,-2.52 -2.05,-4.57 -4.57,-4.57 -2.52,0 -4.57,2.05 -4.57,4.57l0 1.14 -3.43 0 0 9.71c0,1.58 1.28,2.86 2.86,2.86l10.29 0c1.57,0 2.85,-1.28 2.85,-2.86l0 -9.71 -3.43 0zm-6.85 -1.14c0,-1.26 1.02,-2.29 2.28,-2.29 1.26,0 2.29,1.03 2.29,2.29l0 1.14 -4.57 0 0 -1.14zm5.71 4.28c-0.47,0 -0.86,-0.38 -0.86,-0.85 0,-0.48 0.39,-0.86 0.86,-0.86 0.47,0 0.86,0.38 0.86,0.86 0,0.47 -0.39,0.85 -0.86,0.85zm-6.86 0c-0.47,0 -0.85,-0.38 -0.85,-0.85 0,-0.48 0.38,-0.86 0.85,-0.86 0.48,0 0.86,0.38 0.86,0.86 0,0.47 -0.38,0.85 -0.86,0.85z"/>
 </g>
</svg>
