<?xml version="1.0" encoding="UTF-8"?>
<!DOCTYPE svg PUBLIC "-//W3C//DTD SVG 1.1//EN" "http://www.w3.org/Graphics/SVG/1.1/DTD/svg11.dtd">
<!-- Creator: CorelDRAW 2019 (64-Bit) -->
<svg xmlns="http://www.w3.org/2000/svg" xml:space="preserve" width="20px" height="20px" version="1.1" style="shape-rendering:geometricPrecision; text-rendering:geometricPrecision; image-rendering:optimizeQuality; fill-rule:evenodd; clip-rule:evenodd"
viewBox="0 0 20 20"
 xmlns:xlink="http://www.w3.org/1999/xlink"
 xmlns:xodm="http://www.corel.com/coreldraw/odm/2003">
 <defs>
  <style type="text/css">
   <![CDATA[
    .fil0 {fill:#FEFEFE;fill-rule:nonzero}
   ]]>
  </style>
 </defs>
 <g id="Layer_x0020_1">
  <metadata id="CorelCorpID_0Corel-Layer"/>
  <path class="fil0" d="M10 3.87c-2.14,0 -3.87,1.73 -3.87,3.87 0,2.14 1.73,3.87 3.87,3.87 2.14,0 3.87,-1.73 3.87,-3.87 0,-2.14 -1.73,-3.87 -3.87,-3.87zm0 5.81c-1.07,0 -1.94,-0.87 -1.94,-1.94 0,-1.07 0.87,-1.93 1.94,-1.93 1.07,0 1.94,0.86 1.94,1.93 0,1.07 -0.87,1.94 -1.94,1.94zm0 -9.68c-5.52,0 -10,4.48 -10,10 0,5.52 4.48,10 10,10 5.52,0 10,-4.48 10,-10 0,-5.52 -4.48,-10 -10,-10zm0 18.06c-2,0 -3.83,-0.73 -5.25,-1.95 0.6,-0.92 1.63,-1.55 2.81,-1.59 0.84,0.26 1.64,0.39 2.44,0.39 0.8,0 1.6,-0.13 2.44,-0.39 1.18,0.04 2.21,0.67 2.81,1.59 -1.42,1.22 -3.25,1.95 -5.25,1.95l0 0zm6.56 -3.39c-0.98,-1.26 -2.5,-2.09 -4.24,-2.09 -0.41,0 -1.05,0.39 -2.32,0.39 -1.27,0 -1.91,-0.39 -2.32,-0.39 -1.73,0 -3.25,0.83 -4.24,2.09 -0.94,-1.32 -1.5,-2.93 -1.5,-4.67 0,-4.45 3.61,-8.06 8.06,-8.06 4.45,0 8.06,3.61 8.06,8.06 0,1.74 -0.56,3.35 -1.5,4.67z"/>
 </g>
</svg>
